<?xml version="1.0" encoding="UTF-8"?> <svg xmlns="http://www.w3.org/2000/svg" width="114" height="114" viewBox="0 0 114 114" fill="none"> <path d="M107.729 0H6.26996C4.60707 0 3.01228 0.660584 1.83643 1.83643C0.660584 3.01228 0 4.60707 0 6.26996V107.729C0 108.553 0.162178 109.368 0.477273 110.129C0.792368 110.889 1.25421 111.581 1.83643 112.163C2.41865 112.745 3.10985 113.207 3.87055 113.522C4.63126 113.837 5.44658 113.999 6.26996 113.999H60.8757V69.8246H46.0557V52.7247H60.8757V39.8998C60.5687 36.8888 60.9241 33.8471 61.9171 30.9881C62.9101 28.129 64.5166 25.5219 66.6239 23.3494C68.7311 21.177 71.2882 19.4918 74.1157 18.4123C76.9432 17.3327 79.9726 16.8847 82.9915 17.0999C87.428 17.0726 91.8623 17.301 96.2724 17.7839V33.1738H87.2095C80.0275 33.1738 78.6595 36.5938 78.6595 41.5528V52.5537H95.7594L93.5365 69.6536H78.6595V113.999H107.729C108.553 113.999 109.368 113.837 110.129 113.522C110.889 113.207 111.581 112.745 112.163 112.163C112.745 111.581 113.207 110.889 113.522 110.129C113.837 109.368 113.999 108.553 113.999 107.729V6.26996C113.999 5.44658 113.837 4.63126 113.522 3.87055C113.207 3.10985 112.745 2.41865 112.163 1.83643C111.581 1.25421 110.889 0.792368 110.129 0.477273C109.368 0.162178 108.553 0 107.729 0Z" fill="white"></path> </svg> 