<svg width="18" height="18" viewBox="0 0 18 18" fill="none" xmlns="http://www.w3.org/2000/svg">
<path d="M17.5373 13.2767L15.2995 11.039C14.6826 10.4221 13.6787 10.4221 13.0618 11.039L12.0446 12.0561C11.5772 12.5235 10.8167 12.5234 10.3495 12.0563L5.9407 7.64375C5.47222 7.17528 5.47215 6.41703 5.9407 5.94848C6.10453 5.78465 6.57498 5.3142 6.95785 4.93133C7.57209 4.31713 7.58067 3.31636 6.95725 2.69301L4.72009 0.462887C4.10314 -0.154026 3.09928 -0.154026 2.48398 0.46127C2.02356 0.917688 1.87505 1.06493 1.6686 1.26958C-0.556183 3.49433 -0.556183 7.11428 1.6685 9.33896L8.65407 16.3282C10.8841 18.5582 14.4934 18.5584 16.7235 16.3282L17.5373 15.5145C18.1542 14.8975 18.1542 13.8937 17.5373 13.2767ZM3.22827 1.20879C3.43391 1.00316 3.76847 1.00312 3.97478 1.20936L6.21194 3.43948C6.41807 3.64561 6.41807 3.97923 6.21194 4.18539L5.83895 4.55834L2.85722 1.57661L3.22827 1.20879ZM9.40012 15.5824L2.41451 8.59308C0.693255 6.87183 0.598645 4.16908 2.12354 2.33479L5.09663 5.30787C4.31542 6.19346 4.34798 7.54292 5.19461 8.38956L9.60326 12.8019C9.6033 12.8019 9.60337 12.802 9.6034 12.802C10.4491 13.6478 11.7985 13.6825 12.6852 12.9002L15.6583 15.8733C13.8299 17.3956 11.1332 17.3155 9.40012 15.5824ZM16.7914 14.7685L16.4184 15.1415L13.4348 12.1578L13.8077 11.7849C14.0134 11.5792 14.3479 11.5792 14.5536 11.7849L16.7914 14.0226C16.9971 14.2283 16.9971 14.5629 16.7914 14.7685Z" fill="white"/>
</svg>
