<?xml version="1.0" standalone="no"?>
<!DOCTYPE svg PUBLIC "-//W3C//DTD SVG 20010904//EN"
 "http://www.w3.org/TR/2001/REC-SVG-20010904/DTD/svg10.dtd">
<svg version="1.0" xmlns="http://www.w3.org/2000/svg"
 width="224.000000pt" height="205.000000pt" viewBox="0 0 224.000000 205.000000"
 preserveAspectRatio="xMidYMid meet">

<g transform="translate(0.000000,205.000000) scale(0.100000,-0.100000)"
fill="#000000" stroke="none">
<path d="M1034 1385 c-9 -25 -21 -45 -26 -45 -12 0 2 -52 20 -72 29 -34 -1
-17 -83 46 -128 99 -133 101 -260 101 -98 0 -116 -3 -165 -27 -30 -14 -81 -50
-114 -80 -53 -48 -56 -53 -33 -53 14 0 23 3 21 6 -2 4 3 10 12 13 23 9 34 7
34 -4 0 -5 -7 -6 -17 -3 -12 5 -14 3 -8 -7 5 -8 8 -33 6 -55 -1 -22 5 -61 13
-85 8 -25 18 -69 22 -97 11 -84 32 -75 218 91 65 58 122 106 127 106 11 0 109
-83 254 -213 70 -63 121 -103 124 -95 2 6 12 21 23 32 10 11 18 26 18 33 0 7
5 13 10 13 6 0 10 12 10 26 l0 26 43 -37 c23 -21 62 -57 87 -79 161 -148 208
-168 357 -150 l53 7 -83 77 c-231 216 -629 570 -640 570 -3 0 -13 -20 -23 -45z"/>
<path d="M1718 1352 c-10 -31 -21 -70 -24 -87 -4 -16 -11 -35 -16 -42 -5 -6
-12 -43 -15 -83 l-6 -71 49 -51 c82 -84 165 -108 246 -70 21 9 67 43 103 75
l65 59 -47 42 c-147 131 -326 286 -332 286 -3 0 -14 -26 -23 -58z"/>
</g>
</svg>
