<svg width="30" height="30" viewBox="0 0 30 30" fill="none" xmlns="http://www.w3.org/2000/svg">
<path d="M27.6083 0.833252H2.39159C1.97829 0.833252 1.58192 0.997433 1.28968 1.28968C0.997433 1.58192 0.833252 1.97829 0.833252 2.39159V27.6083C0.833252 27.8129 0.87356 28.0155 0.951873 28.2046C1.03019 28.3937 1.14497 28.5655 1.28968 28.7102C1.43438 28.8549 1.60617 28.9697 1.79524 29.048C1.9843 29.1263 2.18694 29.1666 2.39159 29.1666H15.9633V18.1874H12.2799V13.9374H15.9633V10.7499C15.887 10.0016 15.9753 9.2456 16.2221 8.53501C16.4689 7.82443 16.8682 7.17644 17.3919 6.6365C17.9157 6.09656 18.5512 5.67774 19.2539 5.40942C19.9567 5.1411 20.7096 5.02978 21.4599 5.08325C22.5625 5.07647 23.6647 5.13323 24.7607 5.25325V9.07825H22.5083C20.7232 9.07825 20.3833 9.92825 20.3833 11.1608V13.8949H24.6332L24.0808 18.1449H20.3833V29.1666H27.6083C27.8129 29.1666 28.0155 29.1263 28.2046 29.048C28.3937 28.9697 28.5655 28.8549 28.7102 28.7102C28.8549 28.5655 28.9697 28.3937 29.048 28.2046C29.1263 28.0155 29.1666 27.8129 29.1666 27.6083V2.39159C29.1666 2.18694 29.1263 1.9843 29.048 1.79524C28.9697 1.60617 28.8549 1.43438 28.7102 1.28968C28.5655 1.14497 28.3937 1.03019 28.2046 0.951873C28.0155 0.87356 27.8129 0.833252 27.6083 0.833252Z" fill="white"/>
</svg>
