<svg width="34" height="34" viewBox="0 0 34 34" fill="none" xmlns="http://www.w3.org/2000/svg">
<path d="M16.9999 13.4866C16.305 13.4866 15.6258 13.6926 15.048 14.0787C14.4703 14.4647 14.0199 15.0134 13.754 15.6554C13.4881 16.2974 13.4185 17.0038 13.5541 17.6853C13.6897 18.3669 14.0243 18.9929 14.5156 19.4842C15.007 19.9756 15.633 20.3102 16.3145 20.4457C16.996 20.5813 17.7024 20.5117 18.3444 20.2458C18.9864 19.9799 19.5351 19.5296 19.9211 18.9518C20.3072 18.3741 20.5133 17.6948 20.5133 16.9999C20.5133 16.5385 20.4224 16.0817 20.2458 15.6554C20.0693 15.2292 19.8105 14.8419 19.4842 14.5156C19.158 14.1894 18.7707 13.9306 18.3444 13.754C17.9182 13.5775 17.4613 13.4866 16.9999 13.4866ZM31.0674 10.0158C31.06 8.92174 30.8585 7.83773 30.4724 6.81409C30.1881 6.06504 29.7481 5.3848 29.1816 4.81826C28.615 4.25173 27.9348 3.81177 27.1858 3.52742C26.1621 3.14133 25.0781 2.93987 23.9841 2.93242C22.1566 2.83325 21.6183 2.83325 16.9999 2.83325C12.3816 2.83325 11.8433 2.83325 10.0158 2.93242C8.92174 2.93987 7.83773 3.14133 6.81409 3.52742C6.06504 3.81177 5.3848 4.25173 4.81826 4.81826C4.25173 5.3848 3.81177 6.06504 3.52742 6.81409C3.14133 7.83773 2.93987 8.92174 2.93242 10.0158C2.83325 11.8433 2.83325 12.3816 2.83325 16.9999C2.83325 21.6183 2.83325 22.1566 2.93242 23.9841C2.94767 25.0819 3.14885 26.1693 3.52742 27.1999C3.81051 27.9455 4.2501 28.6218 4.81659 29.1833C5.38069 29.7532 6.06239 30.1931 6.81409 30.4724C7.83773 30.8585 8.92174 31.06 10.0158 31.0674C11.8433 31.1666 12.3816 31.1666 16.9999 31.1666C21.6183 31.1666 22.1566 31.1666 23.9841 31.0674C25.0781 31.06 26.1621 30.8585 27.1858 30.4724C27.9375 30.1931 28.6191 29.7532 29.1833 29.1833C29.7497 28.6218 30.1893 27.9455 30.4724 27.1999C30.8581 26.1713 31.0596 25.0827 31.0674 23.9841C31.1666 22.1566 31.1666 21.6183 31.1666 16.9999C31.1666 12.3816 31.1666 11.8433 31.0674 10.0158ZM27.4691 21.3491C27.4236 22.2233 27.237 23.0844 26.9166 23.8991C26.6416 24.5786 26.2327 25.196 25.7143 25.7143C25.196 26.2327 24.5786 26.6416 23.8991 26.9166C23.0767 27.2192 22.2108 27.3866 21.3349 27.4124C20.2158 27.4124 19.9183 27.4124 16.9999 27.4124C14.0816 27.4124 13.7841 27.4124 12.6649 27.4124C11.789 27.3866 10.9231 27.2192 10.1008 26.9166C9.39823 26.6555 8.76381 26.239 8.24492 25.6982C7.73161 25.19 7.3352 24.5761 7.08325 23.8991C6.77946 23.0776 6.61661 22.2107 6.60158 21.3349C6.60158 20.2158 6.60158 19.9183 6.60158 16.9999C6.60158 14.0816 6.60158 13.7841 6.60158 12.6649C6.61661 11.7892 6.77946 10.9223 7.08325 10.1008C7.34432 9.39823 7.76081 8.76381 8.30159 8.24492C8.81206 7.73439 9.42538 7.33838 10.1008 7.08325C10.9231 6.78066 11.789 6.61322 12.6649 6.58742C13.7841 6.58742 14.0816 6.58742 16.9999 6.58742C19.9183 6.58742 20.2158 6.58742 21.3349 6.58742C22.2108 6.61322 23.0767 6.78066 23.8991 7.08325C24.6016 7.34432 25.236 7.76081 25.7549 8.30159C26.2682 8.80981 26.6646 9.42377 26.9166 10.1008C27.2192 10.9231 27.3866 11.789 27.4124 12.6649C27.4124 13.7841 27.4124 14.0816 27.4124 16.9999C27.4124 19.9183 27.5116 20.2158 27.4691 21.3349V21.3491ZM25.2024 10.8091C25.0337 10.3515 24.7678 9.93591 24.4229 9.59105C24.0781 9.2462 23.6625 8.98026 23.2049 8.81158C22.5766 8.59379 21.9148 8.48829 21.2499 8.49992C20.1449 8.49992 19.8333 8.49992 16.9999 8.49992C14.1666 8.49992 13.8549 8.49992 12.7499 8.49992C12.0816 8.50645 11.4198 8.63115 10.7949 8.86825C10.3443 9.02926 9.93315 9.28434 9.58875 9.61654C9.24434 9.94873 8.97459 10.3504 8.79742 10.7949C8.59169 11.4259 8.49118 12.0863 8.49992 12.7499C8.49992 13.8549 8.49992 14.1666 8.49992 16.9999C8.49992 19.8333 8.49992 20.1449 8.49992 21.2499C8.51396 21.9174 8.63842 22.578 8.86825 23.2049C9.03692 23.6625 9.30286 24.0781 9.64772 24.4229C9.99258 24.7678 10.4081 25.0337 10.8658 25.2024C11.4702 25.4247 12.1063 25.5491 12.7499 25.5707C13.8549 25.5707 14.1666 25.5707 16.9999 25.5707C19.8333 25.5707 20.1449 25.5707 21.2499 25.5707C21.9182 25.5642 22.5801 25.4395 23.2049 25.2024C23.6625 25.0337 24.0781 24.7678 24.4229 24.4229C24.7678 24.0781 25.0337 23.6625 25.2024 23.2049C25.4395 22.5801 25.5642 21.9182 25.5707 21.2499C25.5707 20.1449 25.5707 19.8333 25.5707 16.9999C25.5707 14.1666 25.5707 13.8549 25.5707 12.7499C25.5712 12.081 25.4462 11.4179 25.2024 10.7949V10.8091ZM16.9999 22.4116C16.2899 22.4116 15.5869 22.2715 14.9311 21.9994C14.2753 21.7272 13.6797 21.3284 13.1783 20.8257C12.6769 20.323 12.2796 19.7263 12.0092 19.0698C11.7388 18.4133 11.6006 17.7099 11.6024 16.9999C11.6024 15.929 11.9202 14.8821 12.5154 13.9919C13.1107 13.1016 13.9567 12.408 14.9464 11.9988C15.9361 11.5897 17.0249 11.4833 18.0751 11.6933C19.1252 11.9033 20.0895 12.4201 20.8457 13.1783C21.602 13.9366 22.1163 14.9022 22.3235 15.9529C22.5307 17.0036 22.4215 18.0921 22.0097 19.0807C21.598 20.0693 20.9021 20.9135 20.0103 21.5064C19.1185 22.0994 18.0708 22.4144 16.9999 22.4116ZM22.6666 12.6508C22.3534 12.6176 22.0636 12.4697 21.853 12.2356C21.6423 12.0015 21.5258 11.6977 21.5258 11.3828C21.5258 11.0679 21.6423 10.7641 21.853 10.53C22.0636 10.2959 22.3534 10.1481 22.6666 10.1149C22.9797 10.1481 23.2696 10.2959 23.4802 10.53C23.6908 10.7641 23.8074 11.0679 23.8074 11.3828C23.8074 11.6977 23.6908 12.0015 23.4802 12.2356C23.2696 12.4697 22.9797 12.6176 22.6666 12.6508Z" fill="white"/>
</svg>
