<svg width="39" height="37" viewBox="0 0 39 37" fill="none" xmlns="http://www.w3.org/2000/svg">
<path d="M38.25 14.1313C38.1316 13.7884 37.9162 13.4871 37.63 13.2642C37.3438 13.0412 36.999 12.906 36.6375 12.8751L25.9688 11.3188L21.1875 1.62509C21.034 1.30808 20.7943 1.04073 20.4958 0.853664C20.1974 0.666598 19.8522 0.567383 19.5 0.567383C19.1478 0.567383 18.8027 0.666598 18.5042 0.853664C18.2058 1.04073 17.9661 1.30808 17.8125 1.62509L13.0313 11.3001L2.36252 12.8751C2.0155 12.9244 1.68925 13.07 1.4208 13.2954C1.15235 13.5208 0.952444 13.8169 0.843769 14.1501C0.744291 14.4757 0.735364 14.8223 0.817946 15.1526C0.900528 15.483 1.0715 15.7846 1.31252 16.0251L9.05627 23.5251L7.18127 34.1751C7.10557 34.5284 7.13356 34.896 7.26187 35.2338C7.39017 35.5715 7.61334 35.865 7.90451 36.079C8.19568 36.2929 8.54246 36.4181 8.90314 36.4396C9.26381 36.4611 9.623 36.3779 9.93752 36.2001L19.5 31.1938L29.0625 36.2001C29.3257 36.3485 29.6229 36.4261 29.925 36.4251C30.3222 36.4265 30.7096 36.3018 31.0313 36.0688C31.3222 35.8605 31.5474 35.5732 31.6803 35.2409C31.8132 34.9087 31.8482 34.5454 31.7813 34.1938L29.9063 23.5438L37.65 16.0438C37.9207 15.8145 38.1208 15.513 38.227 15.1745C38.3332 14.836 38.3412 14.4742 38.25 14.1313ZM26.7188 21.6313C26.5017 21.8421 26.3389 22.1022 26.2443 22.3896C26.1496 22.6769 26.1258 22.9828 26.175 23.2813L27.525 31.1563L20.475 27.4063C20.201 27.2708 19.8995 27.2003 19.5938 27.2003C19.2881 27.2003 18.9865 27.2708 18.7125 27.4063L11.6625 31.1563L13.0125 23.2813C13.0617 22.9828 13.038 22.6769 12.9433 22.3896C12.8486 22.1022 12.6858 21.8421 12.4688 21.6313L6.84377 16.0063L14.7375 14.8626C15.0413 14.8203 15.33 14.7042 15.5785 14.5244C15.8269 14.3446 16.0274 14.1067 16.1625 13.8313L19.5 6.68759L23.025 13.8501C23.1601 14.1254 23.3606 14.3634 23.6091 14.5432C23.8575 14.723 24.1463 14.8391 24.45 14.8813L32.3438 16.0251L26.7188 21.6313Z" fill="white"/>
</svg>
