<svg width="39" height="37" viewBox="0 0 39 37" fill="none" xmlns="http://www.w3.org/2000/svg">
<path d="M38.2498 14.1313C38.1314 13.7884 37.916 13.4871 37.6298 13.2642C37.3435 13.0412 36.9988 12.906 36.6373 12.8751L25.9685 11.3188L21.1873 1.62509C21.0337 1.30808 20.794 1.04073 20.4956 0.853664C20.1971 0.666598 19.852 0.567383 19.4998 0.567383C19.1475 0.567383 18.8024 0.666598 18.504 0.853664C18.2055 1.04073 17.9658 1.30808 17.8123 1.62509L13.031 11.3001L2.36227 12.8751C2.01525 12.9244 1.68901 13.07 1.42056 13.2954C1.15211 13.5208 0.952199 13.8169 0.843525 14.1501C0.744046 14.4757 0.735119 14.8223 0.817702 15.1526C0.900284 15.483 1.07126 15.7846 1.31227 16.0251L9.05602 23.5251L7.18102 34.1751C7.10532 34.5284 7.13331 34.896 7.26162 35.2338C7.38993 35.5715 7.61309 35.865 7.90427 36.079C8.19544 36.2929 8.54222 36.4181 8.90289 36.4396C9.26356 36.4611 9.62276 36.3779 9.93727 36.2001L19.4998 31.1938L29.0623 36.2001C29.3254 36.3485 29.6226 36.4261 29.9248 36.4251C30.3219 36.4265 30.7093 36.3018 31.031 36.0688C31.3219 35.8605 31.5471 35.5732 31.68 35.2409C31.8129 34.9087 31.848 34.5454 31.781 34.1938L29.906 23.5438L37.6498 16.0438C37.9205 15.8145 38.1206 15.513 38.2268 15.1745C38.333 14.836 38.341 14.4742 38.2498 14.1313ZM26.7185 21.6313C26.5015 21.8421 26.3387 22.1022 26.244 22.3896C26.1493 22.6769 26.1256 22.9828 26.1748 23.2813L27.5248 31.1563L20.4748 27.4063C20.2008 27.2708 19.8992 27.2003 19.5935 27.2003C19.2878 27.2003 18.9863 27.2708 18.7123 27.4063L11.6623 31.1563L13.0123 23.2813C13.0615 22.9828 13.0377 22.6769 12.943 22.3896C12.8483 22.1022 12.6855 21.8421 12.4685 21.6313L6.84352 16.0063L14.7373 14.8626C15.041 14.8203 15.3298 14.7042 15.5782 14.5244C15.8266 14.3446 16.0272 14.1067 16.1623 13.8313L19.4998 6.68759L23.0248 13.8501C23.1599 14.1254 23.3604 14.3634 23.6088 14.5432C23.8573 14.723 24.146 14.8391 24.4498 14.8813L32.3435 16.0251L26.7185 21.6313Z" fill="white"/>
</svg>
