<svg width="39" height="37" viewBox="0 0 39 37" fill="none" xmlns="http://www.w3.org/2000/svg">
<path d="M23.7938 16.2313L17.625 22.4188L15.2063 19.9813C14.8532 19.6282 14.3743 19.4299 13.875 19.4299C13.3757 19.4299 12.8968 19.6282 12.5437 19.9813C12.1907 20.3344 11.9923 20.8132 11.9923 21.3125C11.9923 21.8119 12.1907 22.2907 12.5437 22.6438L16.2937 26.3938C16.4681 26.5695 16.6754 26.709 16.9039 26.8042C17.1324 26.8994 17.3775 26.9484 17.625 26.9484C17.8725 26.9484 18.1176 26.8994 18.3461 26.8042C18.5746 26.709 18.7819 26.5695 18.9562 26.3938L26.4562 18.8938C26.8093 18.5407 27.0077 18.0619 27.0077 17.5625C27.0077 17.0632 26.8093 16.5844 26.4562 16.2313C26.1032 15.8782 25.6243 15.6799 25.125 15.6799C24.6257 15.6799 24.1468 15.8782 23.7938 16.2313ZM32.625 6.31254H20.85L20.25 4.43754C19.861 3.33735 19.1395 2.38536 18.1854 1.71347C17.2314 1.04158 16.0919 0.683043 14.925 0.687542H6.375C4.88316 0.687542 3.45242 1.28017 2.39752 2.33507C1.34263 3.38996 0.75 4.8207 0.75 6.31254V30.6875C0.75 32.1794 1.34263 33.6101 2.39752 34.665C3.45242 35.7199 4.88316 36.3125 6.375 36.3125H32.625C34.1168 36.3125 35.5476 35.7199 36.6025 34.665C37.6574 33.6101 38.25 32.1794 38.25 30.6875V11.9375C38.25 10.4457 37.6574 9.01496 36.6025 7.96007C35.5476 6.90517 34.1168 6.31254 32.625 6.31254ZM34.5 30.6875C34.5 31.1848 34.3025 31.6617 33.9508 32.0134C33.5992 32.365 33.1223 32.5625 32.625 32.5625H6.375C5.87772 32.5625 5.40081 32.365 5.04918 32.0134C4.69754 31.6617 4.5 31.1848 4.5 30.6875V6.31254C4.5 5.81526 4.69754 5.33835 5.04918 4.98672C5.40081 4.63509 5.87772 4.43754 6.375 4.43754H14.925C15.3181 4.43653 15.7015 4.55908 16.0212 4.78787C16.3408 5.01666 16.5805 5.34013 16.7063 5.71254L17.7188 8.78754C17.8445 9.15996 18.0842 9.48342 18.4038 9.71221C18.7235 9.94101 19.1069 10.0636 19.5 10.0625H32.625C33.1223 10.0625 33.5992 10.2601 33.9508 10.6117C34.3025 10.9633 34.5 11.4403 34.5 11.9375V30.6875Z" fill="#CED9FF"/>
</svg>
