<svg width="39" height="39" viewBox="0 0 39 39" fill="none" xmlns="http://www.w3.org/2000/svg">
<path d="M36.375 19.4999C35.8777 19.4999 35.4008 19.6974 35.0492 20.0491C34.6975 20.4007 34.5 20.8776 34.5 21.3749V32.6249C34.5 33.1222 34.3025 33.5991 33.9508 33.9507C33.5992 34.3023 33.1223 34.4999 32.625 34.4999H6.375C5.87772 34.4999 5.40081 34.3023 5.04918 33.9507C4.69754 33.5991 4.5 33.1222 4.5 32.6249V6.37489C4.5 5.8776 4.69754 5.40069 5.04918 5.04906C5.40081 4.69743 5.87772 4.49989 6.375 4.49989H17.625C18.1223 4.49989 18.5992 4.30234 18.9508 3.95071C19.3025 3.59908 19.5 3.12217 19.5 2.62489C19.5 2.1276 19.3025 1.65069 18.9508 1.29906C18.5992 0.94743 18.1223 0.749886 17.625 0.749886H6.375C4.88316 0.749886 3.45242 1.34252 2.39752 2.39741C1.34263 3.4523 0.75 4.88304 0.75 6.37489V32.6249C0.75 34.1167 1.34263 35.5475 2.39752 36.6024C3.45242 37.6573 4.88316 38.2499 6.375 38.2499H32.625C34.1168 38.2499 35.5476 37.6573 36.6025 36.6024C37.6574 35.5475 38.25 34.1167 38.25 32.6249V21.3749C38.25 20.8776 38.0525 20.4007 37.7008 20.0491C37.3492 19.6974 36.8723 19.4999 36.375 19.4999ZM8.25 20.9249V28.8749C8.25 29.3722 8.44754 29.8491 8.79918 30.2007C9.15081 30.5523 9.62772 30.7499 10.125 30.7499H18.075C18.3218 30.7513 18.5664 30.704 18.7948 30.6107C19.0233 30.5174 19.231 30.3799 19.4062 30.2061L32.3813 17.2124L37.7062 11.9999C37.882 11.8256 38.0215 11.6182 38.1167 11.3897C38.2119 11.1612 38.2609 10.9162 38.2609 10.6686C38.2609 10.4211 38.2119 10.176 38.1167 9.94755C38.0215 9.71907 37.882 9.51169 37.7062 9.33739L29.7562 1.29364C29.5819 1.11789 29.3746 0.978405 29.1461 0.883214C28.9176 0.788023 28.6725 0.739014 28.425 0.739014C28.1775 0.739014 27.9324 0.788023 27.7039 0.883214C27.4754 0.978405 27.2681 1.11789 27.0937 1.29364L21.8062 6.59989L8.79375 19.5936C8.61997 19.7688 8.48249 19.9766 8.38918 20.2051C8.29587 20.4335 8.24857 20.6781 8.25 20.9249ZM28.425 5.26864L33.7313 10.5749L31.0688 13.2374L25.7625 7.93114L28.425 5.26864ZM12 21.6936L23.1188 10.5749L28.425 15.8811L17.3062 26.9999H12V21.6936Z" fill="white"/>
</svg>
