<svg width="39" height="39" viewBox="0 0 39 39" fill="none" xmlns="http://www.w3.org/2000/svg">
<path d="M36.6937 0.862606C35.3497 0.631106 33.9888 0.511944 32.625 0.506356C27.9719 0.502541 23.4159 1.83681 19.5 4.35011C15.574 1.86981 11.0187 0.568289 6.37498 0.600106C5.01119 0.605694 3.65023 0.724856 2.30623 0.956356C1.86599 1.03225 1.46731 1.26284 1.182 1.60659C0.896686 1.95034 0.743481 2.38467 0.749976 2.83136V25.3314C0.74596 25.6069 0.802712 25.8799 0.916194 26.1309C1.02968 26.382 1.1971 26.605 1.40655 26.784C1.616 26.963 1.86233 27.0937 2.12802 27.1667C2.3937 27.2397 2.67221 27.2532 2.94373 27.2064C5.63064 26.7411 8.38348 26.8183 11.0401 27.4334C13.6967 28.0484 16.2034 29.1889 18.4125 30.7876L18.6375 30.9189H18.8437C19.0517 31.0055 19.2747 31.0501 19.5 31.0501C19.7252 31.0501 19.9483 31.0055 20.1562 30.9189H20.3625L20.5875 30.7876C22.7811 29.1532 25.2806 27.9757 27.9378 27.3251C30.5949 26.6745 33.3556 26.564 36.0562 27.0001C36.3277 27.047 36.6063 27.0334 36.8719 26.9604C37.1376 26.8874 37.3839 26.7568 37.5934 26.5778C37.8029 26.3987 37.9703 26.1758 38.0838 25.9247C38.1972 25.6736 38.254 25.4006 38.25 25.1251V2.62511C38.2305 2.19789 38.0655 1.79019 37.7824 1.46961C37.4994 1.14904 37.1152 0.934862 36.6937 0.862606ZM17.625 25.7814C14.156 23.9564 10.2947 23.0039 6.37498 23.0064C5.75623 23.0064 5.13748 23.0064 4.49998 23.0064V4.25636C5.12446 4.22037 5.75049 4.22037 6.37498 4.25636C10.3751 4.25194 14.2879 5.42578 17.625 7.63136V25.7814ZM34.5 23.0814C33.8625 23.0814 33.2437 23.0814 32.625 23.0814C28.7053 23.0789 24.8439 24.0314 21.375 25.8564V7.63136C24.7121 5.42578 28.6249 4.25194 32.625 4.25636C33.2495 4.22037 33.8755 4.22037 34.5 4.25636V23.0814ZM36.6937 30.8626C35.3497 30.6311 33.9888 30.5119 32.625 30.5064C27.9719 30.5025 23.4159 31.8368 19.5 34.3501C15.5841 31.8368 11.028 30.5025 6.37498 30.5064C5.01119 30.5119 3.65023 30.6311 2.30623 30.8626C2.06215 30.9013 1.82814 30.9879 1.61766 31.1174C1.40717 31.2469 1.22435 31.4167 1.07973 31.6171C0.935098 31.8175 0.831511 32.0445 0.77492 32.2851C0.71833 32.5256 0.709852 32.775 0.749976 33.0189C0.845261 33.5058 1.12965 33.9351 1.54083 34.2127C1.95202 34.4903 2.45649 34.5937 2.94373 34.5001C5.63064 34.0349 8.38348 34.1121 11.0401 34.7271C13.6967 35.3422 16.2034 36.4826 18.4125 38.0814C18.73 38.3075 19.1102 38.429 19.5 38.429C19.8898 38.429 20.2699 38.3075 20.5875 38.0814C22.7966 36.4826 25.3032 35.3422 27.9599 34.7271C30.6165 34.1121 33.3693 34.0349 36.0562 34.5001C36.5435 34.5937 37.0479 34.4903 37.4591 34.2127C37.8703 33.9351 38.1547 33.5058 38.25 33.0189C38.2901 32.775 38.2816 32.5256 38.225 32.2851C38.1684 32.0445 38.0649 31.8175 37.9202 31.6171C37.7756 31.4167 37.5928 31.2469 37.3823 31.1174C37.1718 30.9879 36.9378 30.9013 36.6937 30.8626Z" fill="#A2B5FA"/>
</svg>
