<svg width="16" height="15" viewBox="0 0 16 15" fill="none" xmlns="http://www.w3.org/2000/svg">
<path d="M14.662 10.8767L12.9089 9.12365C12.4256 8.64035 11.6391 8.64035 11.1558 9.12365L10.359 9.9205C9.99283 10.2867 9.39702 10.2865 9.031 9.92063L5.57711 6.46379C5.2101 6.09678 5.21004 5.50276 5.57711 5.1357C5.70546 5.00735 6.07401 4.63879 6.37396 4.33885C6.85516 3.85767 6.86188 3.07366 6.37349 2.58533L4.62087 0.838217C4.13754 0.35492 3.35111 0.35492 2.86908 0.83695C2.50837 1.19451 2.39203 1.30986 2.2303 1.47019C0.487375 3.21309 0.487375 6.049 2.23022 7.79183L7.7028 13.2673C9.4498 15.0143 12.2774 15.0144 14.0245 13.2673L14.662 12.6298C15.1453 12.1465 15.1453 11.3601 14.662 10.8767ZM3.45216 1.42257C3.61326 1.26147 3.87536 1.26144 4.03698 1.42301L5.7896 3.17012C5.95109 3.3316 5.95109 3.59296 5.7896 3.75447L5.4974 4.04665L3.16147 1.71072L3.45216 1.42257ZM8.28726 12.683L2.81465 7.20751C1.4662 5.85906 1.39208 3.74169 2.58671 2.30469L4.91585 4.63384C4.30385 5.32762 4.32935 6.3848 4.99262 7.04806L8.4464 10.5047C8.44643 10.5048 8.44649 10.5048 8.44651 10.5048C9.10906 11.1674 10.1662 11.1946 10.8608 10.5817L13.19 12.9109C11.7576 14.1035 9.64499 14.0407 8.28726 12.683ZM14.0777 12.0454L13.7855 12.3376L11.448 10.0002L11.7402 9.708C11.9013 9.5469 12.1634 9.54687 12.3246 9.708L14.0777 11.4611C14.2388 11.6222 14.2388 11.8844 14.0777 12.0454Z" fill="black"/>
</svg>
