<svg width="19" height="15" viewBox="0 0 19 15" fill="none" xmlns="http://www.w3.org/2000/svg">
<path d="M16.8114 0H1.61994C0.727823 0 0 0.727031 0 1.61994V12.4196C0 13.3095 0.724583 14.0395 1.61994 14.0395H16.8114C17.7013 14.0395 18.4314 13.3149 18.4314 12.4196V1.61994C18.4314 0.730055 17.7068 0 16.8114 0ZM16.5877 1.07996L9.25003 8.4177L1.84886 1.07996H16.5877ZM1.07996 12.196V1.83842L6.28103 6.99489L1.07996 12.196ZM1.84361 12.9596L7.04795 7.75522L8.87154 9.56315C9.08263 9.77244 9.42329 9.77176 9.63352 9.56149L11.4116 7.7834L16.5878 12.9596H1.84361ZM17.3514 12.1959L12.1753 7.01976L17.3514 1.84357V12.1959Z" fill="white"/>
</svg>
