<?xml version="1.0" encoding="UTF-8"?> <svg xmlns="http://www.w3.org/2000/svg" width="114" height="114" viewBox="0 0 114 114" fill="none"> <path d="M56.9997 28.4998C51.3629 28.4998 45.8528 30.1713 41.166 33.3029C36.4792 36.4345 32.8263 40.8856 30.6693 46.0933C28.5122 51.3009 27.9478 57.0313 29.0475 62.5597C30.1471 68.0881 32.8615 73.1663 36.8472 77.1521C40.833 81.1379 45.9112 83.8522 51.4396 84.9519C56.9681 86.0516 62.6984 85.4872 67.9061 83.3301C73.1137 81.173 77.5648 77.5201 80.6964 72.8333C83.828 68.1466 85.4995 62.6364 85.4995 56.9997C85.4995 49.441 82.4969 42.192 77.1521 36.8472C71.8073 31.5025 64.5583 28.4998 56.9997 28.4998ZM56.9997 74.0996C53.6176 74.0996 50.3115 73.0967 47.4995 71.2177C44.6874 69.3388 42.4957 66.6681 41.2014 63.5435C39.9072 60.4189 39.5685 56.9807 40.2283 53.6636C40.8881 50.3466 42.5167 47.2997 44.9082 44.9082C47.2997 42.5167 50.3466 40.8881 53.6636 40.2283C56.9807 39.5685 60.4189 39.9072 63.5435 41.2014C66.6681 42.4957 69.3388 44.6874 71.2177 47.4995C73.0967 50.3115 74.0996 53.6176 74.0996 56.9997C74.0996 61.5348 72.298 65.8843 69.0911 69.0911C65.8843 72.298 61.5348 74.0996 56.9997 74.0996ZM85.4995 22.7999C84.3722 22.7999 83.2701 23.1342 82.3328 23.7605C81.3954 24.3868 80.6648 25.277 80.2334 26.3186C79.802 27.3601 79.6891 28.5062 79.9091 29.6118C80.129 30.7175 80.6719 31.7332 81.469 32.5303C82.2662 33.3275 83.2818 33.8703 84.3875 34.0903C85.4932 34.3102 86.6393 34.1973 87.6808 33.7659C88.7223 33.3345 89.6125 32.6039 90.2389 31.6666C90.8652 30.7292 91.1995 29.6272 91.1995 28.4998C91.1995 26.9881 90.5989 25.5383 89.53 24.4694C88.461 23.4004 87.0112 22.7999 85.4995 22.7999ZM113.657 35.5678C113.563 30.6967 112.638 25.8775 110.921 21.3179C109.33 17.1687 106.883 13.4006 103.741 10.2582C100.599 7.11586 96.8307 4.66951 92.6815 3.07798C88.1218 1.36172 83.3026 0.436433 78.4316 0.341998C72.9026 -3.1851e-07 71.0786 0 56.9997 0C42.9208 0 41.0968 -3.1851e-07 35.5678 0.341998C30.6967 0.436433 25.8775 1.36172 21.3179 3.07798C17.1687 4.66951 13.4006 7.11586 10.2582 10.2582C7.11586 13.4006 4.66951 17.1687 3.07798 21.3179C1.36172 25.8775 0.436433 30.6967 0.341998 35.5678C-3.1851e-07 41.1538 0 42.9778 0 56.9997C0 71.0216 -3.1851e-07 72.8456 0.341998 78.4316C0.436433 83.3026 1.36172 88.1218 3.07798 92.6815C4.66951 96.8307 7.11586 100.599 10.2582 103.741C13.4006 106.883 17.1687 109.33 21.3179 110.921C25.8775 112.638 30.6967 113.563 35.5678 113.657C41.2678 113.657 42.9208 113.999 56.9997 113.999C71.0786 113.999 72.9026 113.999 78.4316 113.657C83.3026 113.563 88.1218 112.638 92.6815 110.921C96.8307 109.33 100.599 106.883 103.741 103.741C106.883 100.599 109.33 96.8307 110.921 92.6815C112.638 88.1218 113.563 83.3026 113.657 78.4316C113.657 72.7316 113.999 71.0216 113.999 56.9997C113.999 42.9778 113.999 41.1538 113.657 35.5678ZM102.257 77.9186C102.157 81.5358 101.484 85.1143 100.262 88.5205C99.2523 91.2128 97.6557 93.6466 95.5884 95.6455C93.6016 97.7137 91.163 99.2939 88.4635 100.262C85.0493 101.534 81.4469 102.228 77.8046 102.314C72.4466 102.314 70.7936 102.599 56.9427 102.599C43.0917 102.599 41.4958 102.599 36.1378 102.599C32.5013 102.506 28.9031 101.832 25.4789 100.604C22.7865 99.5943 20.3527 97.9977 18.3539 95.9304C16.2857 93.9436 14.7055 91.5049 13.7369 88.8055C12.4704 85.4096 11.777 81.8268 11.6849 78.2036C11.6849 72.5036 11.6849 71.0786 11.6849 57.2847C11.6849 43.4908 11.6849 41.8378 11.6849 36.3658C11.7832 32.7247 12.4763 29.1242 13.7369 25.7069C14.7205 23.0315 16.2992 20.6146 18.3539 18.6389C20.3408 16.5707 22.7794 14.9905 25.4789 14.0219C28.8931 12.7502 32.4955 12.0567 36.1378 11.9699C41.4958 11.3999 43.1487 11.3999 56.9997 11.3999C70.8506 11.3999 72.5036 11.3999 77.8615 11.3999C81.5217 11.493 85.1419 12.1862 88.5775 13.4519C91.2529 14.4355 93.6697 16.0142 95.6455 18.0689C97.7137 20.0558 99.2939 22.4944 100.262 25.1939C101.658 28.6626 102.448 32.3449 102.599 36.0808C102.599 41.7808 102.884 43.2057 102.884 56.9997C102.884 70.7936 102.599 72.4466 102.599 77.9186H102.257Z" fill="white"></path> </svg> 