<svg width="15" height="12" viewBox="0 0 15 12" fill="none" xmlns="http://www.w3.org/2000/svg">
<path d="M13.1703 0.477051H1.26908C0.570185 0.477051 0 1.04662 0 1.74613V10.2067C0 10.9038 0.567647 11.4758 1.26908 11.4758H13.1703C13.8674 11.4758 14.4394 10.9081 14.4394 10.2067V1.74613C14.4394 1.04898 13.8717 0.477051 13.1703 0.477051ZM12.995 1.32311L7.24658 7.07158L1.44842 1.32311H12.995ZM0.846056 10.0315V1.91729L4.92063 5.95693L0.846056 10.0315ZM1.4443 10.6297L5.52144 6.55258L6.95007 7.96893C7.11544 8.1329 7.38232 8.13236 7.54701 7.96763L8.93999 6.57466L12.995 10.6297H1.4443ZM13.5933 10.0315L9.53824 5.97641L13.5933 1.92132V10.0315Z" fill="black"/>
</svg>
